<?xml version="1.0" encoding="UTF-8" standalone="no"?>
<svg
   xmlns:dc="http://purl.org/dc/elements/1.1/"
   xmlns:cc="http://creativecommons.org/ns#"
   xmlns:rdf="http://www.w3.org/1999/02/22-rdf-syntax-ns#"
   xmlns:svg="http://www.w3.org/2000/svg"
   xmlns="http://www.w3.org/2000/svg"
   xmlns:sodipodi="http://sodipodi.sourceforge.net/DTD/sodipodi-0.dtd"
   xmlns:inkscape="http://www.inkscape.org/namespaces/inkscape"
   width="280"
   height="280"
   viewBox="0 0 280 280"
   id="svg4135"
   version="1.1"
   inkscape:version="1.0 (1.0+r73+1)"
   sodipodi:docname="Logo-Badge-#FFF.svg"
   inkscape:export-filename="/home/sebastien/Sources/LM-logo/Color_lm+name_#75cc1c.png"
   inkscape:export-xdpi="96"
   inkscape:export-ydpi="96">
  <defs
     id="defs4137" />
  <sodipodi:namedview
     id="base"
     pagecolor="#f2f2f2"
     bordercolor="#666666"
     borderopacity="1.0"
     inkscape:pageopacity="0"
     inkscape:pageshadow="2"
     inkscape:zoom="1"
     inkscape:cx="66.555436"
     inkscape:cy="140"
     inkscape:document-units="px"
     inkscape:current-layer="layer1"
     showgrid="false"
     units="px"
     inkscape:window-width="1440"
     inkscape:window-height="839"
     inkscape:window-x="0"
     inkscape:window-y="0"
     inkscape:window-maximized="1"
     inkscape:showpageshadow="false"
     objecttolerance="10"
     gridtolerance="10"
     guidetolerance="10"
     showguides="false"
     inkscape:guide-bbox="true"
     fit-margin-top="0"
     fit-margin-left="0"
     fit-margin-right="0"
     fit-margin-bottom="0"
     inkscape:document-rotation="0">
    <inkscape:grid
       type="xygrid"
       id="grid3333"
       spacingx="20"
       spacingy="20"
       color="#3f3fff"
       opacity="0.1254902"
       empcolor="#ff3f3f"
       empopacity="0.25098039"
       dotted="false"
       originx="-92.999998"
       originy="-93.000018" />
    <sodipodi:guide
       position="-92.999998,-17.000068"
       orientation="0,1"
       id="guide4248"
       inkscape:locked="false" />
  </sodipodi:namedview>
  <metadata
     id="metadata4140">
    <rdf:RDF>
      <cc:Work
         rdf:about="">
        <dc:format>image/svg+xml</dc:format>
        <dc:type
           rdf:resource="http://purl.org/dc/dcmitype/StillImage" />
        <dc:title></dc:title>
        <dc:creator>
          <cc:Agent>
            <dc:title />
          </cc:Agent>
        </dc:creator>
        <cc:license
           rdf:resource="" />
      </cc:Work>
    </rdf:RDF>
  </metadata>
  <g
     inkscape:label="Layer 1"
     inkscape:groupmode="layer"
     id="layer1"
     transform="translate(-93,-833.36218)">
    <path
       id="ellipse4247"
       style="fill:#ffffff;fill-opacity:1;stroke:none;stroke-width:22.3357;stroke-linecap:butt;stroke-linejoin:bevel;stroke-miterlimit:4;stroke-dasharray:none;stroke-opacity:1"
       d="M 139.97461 0 A 140 140 0 0 0 0 140 A 140 140 0 0 0 140 280 A 140 140 0 0 0 280 140 A 140 140 0 0 0 140 0 A 140 140 0 0 0 139.97461 0 z M 63 70.5 L 85 70.5 L 85 169.5 C 85 181.7806 94.71945 191.5 107 191.5 L 173 191.5 C 185.28053 191.5 195 181.7806 195 169.5 L 195 114.5 C 195 108.2946 190.20542 103.5 184 103.5 C 177.79461 103.5 173 108.2946 173 114.5 L 173 169.5 L 151 169.5 L 151 114.5 C 151 108.29461 146.20539 103.5 140 103.5 C 133.79459 103.5 129 108.29461 129 114.5 L 129 169.5 L 107 169.5 L 107 114.5 C 107 96.40489 121.90489 81.5 140 81.5 C 148.4533 81.5 156.13349 84.841054 162 90.152344 C 167.86651 84.841054 175.5467 81.5 184 81.5 C 202.09512 81.5 217 96.4049 217 114.5 L 217 169.5 C 217 193.6703 197.17023 213.5 173 213.5 L 107 213.5 C 82.82977 213.5 63 193.6703 63 169.5 L 63 70.5 z "
       transform="translate(93,833.36218)" />
  </g>
</svg>
