<?xml version="1.0" encoding="UTF-8" standalone="no"?>
<svg
   xmlns:dc="http://purl.org/dc/elements/1.1/"
   xmlns:cc="http://creativecommons.org/ns#"
   xmlns:rdf="http://www.w3.org/1999/02/22-rdf-syntax-ns#"
   xmlns:svg="http://www.w3.org/2000/svg"
   xmlns="http://www.w3.org/2000/svg"
   xmlns:sodipodi="http://sodipodi.sourceforge.net/DTD/sodipodi-0.dtd"
   xmlns:inkscape="http://www.inkscape.org/namespaces/inkscape"
   height="700"
   width="1012"
   id="svg14"
   version="1.1"
   viewBox="0 0 1012 700"
   sodipodi:docname="pop_edit.svg"
   inkscape:version="0.92.5 (2060ec1f9f, 2020-04-08)">
  <sodipodi:namedview
     pagecolor="#ffffff"
     bordercolor="#666666"
     borderopacity="1"
     objecttolerance="10"
     gridtolerance="10"
     guidetolerance="10"
     inkscape:pageopacity="0"
     inkscape:pageshadow="2"
     inkscape:window-width="1920"
     inkscape:window-height="1016"
     id="namedview11"
     showgrid="false"
     inkscape:zoom="0.8468512"
     inkscape:cx="506"
     inkscape:cy="350"
     inkscape:window-x="0"
     inkscape:window-y="27"
     inkscape:window-maximized="1"
     inkscape:current-layer="svg14" />
  <metadata
     id="metadata20">
    <rdf:RDF>
      <cc:Work
         rdf:about="">
        <dc:format>image/svg+xml</dc:format>
        <dc:type
           rdf:resource="http://purl.org/dc/dcmitype/StillImage" />
        <dc:title />
      </cc:Work>
    </rdf:RDF>
  </metadata>
  <defs
     id="defs18" />
  <path
     style="fill:#6cc7d2;stroke-width:0.98686367"
     id="path2"
     d="m 904.38957,397.08506 c -1.85504,7.88028 -5.85803,14.86281 -12.69239,19.25182 -10.7397,6.88278 -23.82262,4.88777 -33.09782,-3.49126 -8.68941,-7.78053 -11.61842,-20.94758 -8.88467,-32.31912 2.83138,-11.87029 11.81368,-22.34408 23.33445,-25.63584 25.67767,-7.28178 36.31975,21.24682 31.34043,42.1944 z m -15.71903,-80.9973 c -15.9143,-6.48377 -10.44681,-91.77034 4.10061,-195.31122 4.10062,-28.92761 11.13025,-42.59341 19.03858,-49.57593 11.32551,-9.87529 31.92622,-10.27429 45.88784,-8.17953 16.01193,2.394 31.34043,9.97503 42.95883,21.44633 10.2515,10.17453 11.4232,20.54857 7.9083,34.01487 -5.7604,21.44633 -15.62136,41.99491 -25.09183,62.04473 -2.24557,4.88777 -21.86995,42.89266 -24.50606,47.58093 -47.35235,85.18681 -56.82282,93.46609 -70.29627,87.97982 z" />
  <path
     style="fill:#bbb5b3;stroke-width:0.98686367"
     id="path4"
     d="m 567.45562,277.68387 c 9.37284,40.89765 8.3965,85.78532 0.39054,118.10444 -7.5178,30.52361 -27.92324,57.85521 -60.33764,67.03225 -28.41141,8.07977 -61.50924,2.1945 -81.81705,-17.75557 C 392.30074,412.34687 372.774,335.53908 381.4634,279.77863 c 7.02963,-44.78792 30.65699,-102.14438 82.50049,-104.63814 3.31954,-0.1995 6.63909,-0.0997 9.95864,0.1995 52.81983,4.88777 81.62178,50.37394 93.53309,102.34388 z m -95.48577,93.06709 c 2.92901,0.49876 5.85802,0.49876 8.78704,-0.399 9.861,-2.89276 15.52376,-13.36655 18.15987,-23.54108 4.00298,-15.46131 3.41718,-32.11962 -1.75741,-47.28168 -2.63611,-7.68078 -6.54146,-15.16206 -12.49712,-20.74808 -20.99124,-19.65082 -41.98249,0.79801 -45.59494,24.03984 -2.83138,18.15457 1.26924,39.2019 12.39948,53.8652 5.17459,6.78303 12.59475,12.6683 20.50308,14.0648 z" />
  <path
     style="fill:#99918d;stroke-width:0.98686367"
     id="path6"
     d="m 681.7847,364.36694 c -0.0976,75.51103 7.32253,133.26649 -25.1895,140.14927 -26.3611,5.48627 -25.4824,-18.15457 -27.5327,-38.00489 -7.8107,-76.90754 -14.93796,-204.68776 -17.96461,-281.99429 2.14794,-33.21688 23.92026,-53.56595 46.57128,-58.55347 34.95287,-7.68078 72.24895,-5.48627 103.19884,14.0648 61.21634,38.70314 66.09802,109.72541 28.99721,167.68037 -20.30781,31.62087 -81.71942,54.56345 -108.08052,52.56845 z m 7.8107,-169.27638 c -3.80772,0.59851 -10.05627,2.39401 -11.81368,6.18453 -4.19825,8.87778 -3.90535,65.23674 3.41718,88.87758 1.1716,3.89026 3.80771,7.58102 7.61543,8.97753 13.86399,5.18702 26.3611,-12.16955 32.02386,-22.64333 7.90833,-14.56356 10.4468,-31.72062 5.46748,-47.68068 -4.68641,-14.86281 -19.23384,-36.40889 -36.71027,-33.71563 z" />
  <path
     style="fill:#48b9c7;stroke-width:0.98686367"
     id="path8"
     d="m 331.67021,232.5967 c -22.94393,49.57594 -61.02107,88.97733 -113.74328,108.42865 15.13323,40.3989 30.55935,80.29905 45.59494,120.5982 8.3965,21.74558 16.40247,45.58592 9.07994,67.03225 -7.61543,21.94508 -37.29608,28.02985 -58.87313,4.68827 C 172.23435,488.2569 31.934707,202.57184 21.585534,181.12551 12.7985,162.67169 -0.38205176,142.92112 0.0084831,121.57454 0.69191909,89.45492 49.313508,56.9363 72.647966,40.27799 105.25763,17.03616 142.94424,1.17585 183.26696,1.0761 c 31.43806,0 58.28733,8.77803 82.10996,24.33909 36.515,23.94009 61.89977,62.14448 71.27261,105.33639 8.20123,38.00489 6.44382,76.90753 -4.97932,101.84512 M 224.76129,178.3325 c -8.20123,-30.42386 -26.75164,-58.45371 -50.08609,-78.10454 -5.07696,-4.28926 -10.54445,-8.27928 -16.89064,-10.47379 -43.7399,-14.6633 -24.79896,60.04973 -17.6717,78.90255 9.86101,26.43384 24.79896,59.85022 44.81388,79.80029 4.39351,4.38902 9.5681,8.27928 15.52376,9.47629 9.07993,1.89525 17.47643,-4.58852 22.06522,-12.16955 3.80771,-6.28427 5.27222,-13.76555 6.15092,-21.04733 1.65977,-15.4613 0.19527,-31.22186 -3.90535,-46.38392 z" />
  <path
     style="fill:#554741;fill-opacity:1;stroke-width:0.98686367"
     id="path10"
     d="m 854.72855,612.31791 c -0.19527,43.79041 -26.3611,87.58082 -84.06263,87.58082 -57.70152,0 -84.55079,-43.09216 -84.55079,-87.08207 0,-54.8627 37.39371,-88.77783 85.7224,-88.77783 56.04175,0.49875 83.37919,42.99241 82.89102,88.27908 z m -82.89102,-60.64822 c -36.22211,0 -56.52992,25.73559 -56.72519,60.84772 0,30.52361 16.69536,59.15197 56.04175,59.15197 39.34639,0 54.38198,-31.02237 54.38198,-59.45122 0.48817,-29.52611 -14.84033,-59.85022 -53.69854,-60.54847 z M 878.94171,677.4549 c 0,6.48377 0.19527,-30.82286 0,-36.50863 h 26.55637 l 1.85504,22.84283 c 8.6894,5.08727 22.16285,8.87778 33.19546,8.87778 20.50308,0 41.88486,-5.28677 41.88486,-25.73559 -0.68343,-18.55357 -24.50606,-22.34409 -43.7399,-24.33909 -32.70729,-3.39152 -59.0684,-11.57105 -59.0684,-49.07718 0,-33.41638 37.00318,-50.07469 64.53589,-50.07469 22.16285,-0.49875 37.88188,3.09226 57.89677,19.45132 0,13.4663 -0.1953,21.44633 -0.1953,34.91263 h -25.67761 l -1.65978,-22.14458 c -10.34917,-5.08727 -20.99124,-6.48377 -29.19248,-6.28427 -17.6717,0.1995 -36.51501,8.67828 -36.51501,23.84033 0,14.86281 12.20422,18.95257 33.8789,22.14459 35.34341,4.78801 69.41758,12.96754 69.41758,51.47119 -0.1953,42.09465 -38.85822,53.16694 -72.05369,53.16694 -25.28713,0.0997 -41.10379,-4.68826 -61.1187,-22.54358 z"
     inkscape:connector-curvature="0" />
  <path
     style="fill:#faa41a;stroke-width:0.98686367"
     id="path12"
     d="m 650.28355,685.53468 c 0,7.68078 -6.05329,13.8653 -13.57108,13.8653 H 479.81509 c -7.5178,0 -13.57109,-6.18452 -13.57109,-13.8653 v -1.197 c 0,-7.68078 6.05329,-13.86531 13.57109,-13.86531 h 156.89738 c 7.51779,0 13.57108,6.18453 13.57108,13.86531 z"
     inkscape:connector-curvature="0" />
</svg>
