<svg xmlns="http://www.w3.org/2000/svg" width="1024" height="324" viewBox="-1.8 -1.8 197.9 62.6"><path d="M194.4 16.4C194.4 7.4 187 0 177.9 0 168.8 0 161.5 7.4 161.5 16.4L161.5 16.4 161.5 29.2 161.5 29.2C161.5 31.2 163.1 32.9 165.2 32.9L165.2 32.9 165.2 32.9 177.9 32.9C187 32.9 194.4 25.5 194.4 16.4" fill="#072b61"/><path d="M182.8 3.9C178.5 3.9 175 7.4 175 11.6L175 15.7 170.9 15.7C166.7 15.7 163.2 19.1 163.2 23.4 163.2 27.7 166.7 31.1 170.9 31.1 175.2 31.1 178.7 27.7 178.7 23.4L178.7 19.3 182.8 19.3C187 19.3 190.5 15.9 190.5 11.6 190.5 7.4 187 3.9 182.8 3.9zM182.8 7.5C185 7.5 186.8 9.4 186.8 11.6 186.8 13.9 185 15.7 182.8 15.7L182.7 15.7 179.3 15.7C178.9 15.7 178.7 15.4 178.7 15.1L178.7 11.6C178.7 9.4 180.5 7.5 182.8 7.5zM76.8 17.9C75.2 17.9 73.9 19.1 73.9 20.8L73.9 36.2C72.4 33.5 69.2 31.6 65.3 31.6 57.5 31.6 52.3 37.5 52.3 45.3 52.3 53.2 57.7 59.1 65.3 59.1 68.7 59.1 71.7 57.7 73.4 55.2L74.1 56.9C74.5 58 75.6 58.8 76.9 58.8 78.5 58.8 79.8 57.5 79.8 55.9L79.8 55.9 79.8 20.8C79.8 19.1 78.5 17.9 76.8 17.9zM17 17.9C10.9 17.9 6 22.9 6 28.9L6 32.4 2.4 32.4C1.1 32.4 0 33.5 0 34.8 0 36.1 1.1 37.4 2.4 37.4L6 37.4 6 55.9C6 57.5 7.3 58.8 8.9 58.8 10.6 58.8 11.9 57.5 11.9 55.9L11.9 37.4 15.8 37.4C17.2 37.4 18.3 36.1 18.3 34.8 18.3 33.5 17.2 32.4 15.8 32.4L11.9 32.4 11.9 28.9C11.9 26.1 14.2 23.4 17 23.4 17.3 23.4 17.5 23.4 17.8 23.5 19.4 23.7 20.9 23 21.1 21.4 21.4 19.8 20.2 18.3 18.6 18.1 18.1 18 17.5 17.9 17 17.9zM170.9 19.3L174.4 19.3C174.8 19.3 175 19.6 175 19.9L175 23.4C175 25.7 173.2 27.5 170.9 27.5 168.7 27.5 166.8 25.7 166.8 23.4 166.8 21.2 168.7 19.3 170.9 19.3zM189.8 29L189.8 29.2 190.1 29.2 190.1 30.1 190.3 30.1 190.3 29.2 190.6 29.2 190.6 29 189.8 29zM190.7 29L190.7 30.1 190.9 30.1 190.9 29.5 190.9 29.4 190.9 29.5 191.2 30.1 191.5 29.5 191.5 29.3 191.5 29.5 191.5 30.1 191.7 30.1 191.7 29 191.5 29 191.3 29.5 191.2 29.7 191.2 29.5 190.9 29 190.7 29zM34.3 31.6C26.6 31.6 20.7 37.7 20.7 45.3 20.7 53 26.8 59.1 34.4 59.1 38.6 59.1 42.9 57.3 45.4 54.6 45.9 54 46.2 53.3 46.3 52.7 46.3 52.2 46.1 51.7 45.8 51.3 45.3 50.7 44.6 50.3 43.8 50.3 43.3 50.3 42.8 50.4 42.4 50.8 40.3 52.9 37.7 54.2 34.6 54.2 30.3 54.2 27.1 51.1 26.8 47.1 45.3 47.1 45.3 47.1 45.3 47.1 46.4 47.1 47.5 46.4 47.5 45.2 47.5 37.5 41.8 31.6 34.3 31.6zM98.3 31.6C90.6 31.6 84.5 37.7 84.5 45.3 84.5 53 90.6 59.1 98.3 59.1 105.9 59.1 112 53 112 45.3 112 37.7 105.9 31.6 98.3 31.6zM131.8 31.6C127.8 31.6 125.1 32.8 122.8 35.8L122.5 34.4C122.3 32.9 121.1 31.8 119.6 31.8 118 31.8 116.7 33.1 116.7 34.8L116.7 34.8 116.7 55.9C116.7 57.5 118 58.8 119.6 58.8 121.2 58.8 122.6 57.5 122.6 55.9L122.6 44.6C122.6 39.4 127 36.8 131.8 36.8 133.2 36.8 134.4 35.6 134.4 34.2 134.4 32.7 133.2 31.6 131.8 31.6zM149.1 31.6C141.4 31.6 135.3 37.7 135.3 45.3 135.3 53 141.3 59.1 148.5 59.1 152.2 59.1 155.4 57.2 156.8 55.3L157.6 57.1C157.9 58.1 158.9 58.8 160.1 58.8 161.6 58.8 162.8 57.6 162.8 56.1L162.8 49.1 162.8 45.3C162.8 38 157.6 31.6 149.1 31.6zM34.3 36.5C38.2 36.5 41.1 39.3 41.6 43 41.6 43 35.9 43 26.9 43 27.5 39.2 30.2 36.5 34.3 36.5zM66.1 36.8C70.9 36.8 73.9 40.5 73.9 45.3 73.9 50.2 70.9 53.8 66.1 53.8 61.3 53.8 58.2 50 58.2 45.3 58.2 40.7 61.3 36.8 66.1 36.8zM98.3 36.8C103 36.8 106.2 40.7 106.2 45.3 106.2 50 103 53.8 98.3 53.8 93.5 53.8 90.3 50 90.3 45.3 90.3 40.7 93.5 36.8 98.3 36.8zM149.1 36.8C153.9 36.8 157 40.7 157 45.3 157 50 153.9 53.8 149.1 53.8 144.3 53.8 141.2 50 141.2 45.3 141.2 40.7 144.3 36.8 149.1 36.8zM163.6 55.1L163.6 55.3 163.9 55.3 163.9 56.2 164.1 56.2 164.1 55.3 164.4 55.3 164.4 55.1 163.6 55.1zM164.5 55.1L164.5 56.2 164.7 56.2 164.7 55.6 164.7 55.5 164.8 55.6 165 56.2 165.3 55.6 165.3 55.5 165.3 55.6 165.3 56.2 165.5 56.2 165.5 55.1 165.3 55.1 165.1 55.6 165 55.8 165 55.6 164.7 55.1 164.5 55.1z" fill="#0a57a4"/><path d="M175 15.7L175 11.6 175 11.6C175 7.4 178.5 3.9 182.7 3.9 183.4 3.9 183.8 4 184.4 4.1 185.3 4.4 186 5.1 186 5.9 186 6.9 185.3 7.6 184.2 7.6 183.7 7.6 183.5 7.5 182.7 7.5 180.5 7.5 178.7 9.4 178.7 11.6L178.7 15.1 178.7 15.1C178.7 15.5 178.9 15.7 179.2 15.7L179.2 15.7 181.9 15.7C182.9 15.7 183.7 16.5 183.7 17.5 183.7 18.5 182.9 19.3 181.9 19.3L178.7 19.3 178.7 23.4 178.7 23.4C178.7 27.7 175.2 31.1 170.9 31.1 170.3 31.1 169.8 31.1 169.2 30.9 168.4 30.7 167.7 30 167.7 29.1 167.7 28.1 168.4 27.4 169.5 27.4 170 27.4 170.2 27.5 170.9 27.5 173.2 27.5 175 25.7 175 23.4L175 19.9C175 19.6 174.8 19.3 174.4 19.3L174.4 19.3 171.8 19.3C170.8 19.3 170 18.5 170 17.5 170 16.5 170.8 15.7 171.8 15.7L175 15.7" fill="#fff"/></svg>