<?xml version="1.0" encoding="UTF-8" standalone="no"?>
<!-- Created with Inkscape (http://www.inkscape.org/) -->

<svg
   xmlns:dc="http://purl.org/dc/elements/1.1/"
   xmlns:cc="http://creativecommons.org/ns#"
   xmlns:rdf="http://www.w3.org/1999/02/22-rdf-syntax-ns#"
   xmlns:svg="http://www.w3.org/2000/svg"
   xmlns="http://www.w3.org/2000/svg"
   xmlns:sodipodi="http://sodipodi.sourceforge.net/DTD/sodipodi-0.dtd"
   xmlns:inkscape="http://www.inkscape.org/namespaces/inkscape"
   width="848.59583"
   height="233.3278"
   id="svg2"
   version="1.1"
   inkscape:version="0.91 r13725"
   sodipodi:docname="elementary-logotype_black-on-white_master.svg"
   inkscape:export-filename="/home/hex/Pictures/Client_Work/elementary/First-Draft/Logo/elementary-v2-path-postlig.png"
   inkscape:export-xdpi="72.571426"
   inkscape:export-ydpi="72.571426">
  <defs
     id="defs4" />
  <sodipodi:namedview
     id="base"
     pagecolor="#ffffff"
     bordercolor="#666666"
     borderopacity="1.0"
     inkscape:pageopacity="0.0"
     inkscape:pageshadow="2"
     inkscape:zoom="1.4142136"
     inkscape:cx="214.76785"
     inkscape:cy="58.358586"
     inkscape:document-units="px"
     inkscape:current-layer="layer1"
     showgrid="false"
     inkscape:window-width="3200"
     inkscape:window-height="1674"
     inkscape:window-x="0"
     inkscape:window-y="60"
     inkscape:window-maximized="1"
     showguides="false"
     inkscape:guide-bbox="true"
     fit-margin-top="0"
     fit-margin-left="0"
     fit-margin-right="0"
     fit-margin-bottom="0">
    <sodipodi:guide
       orientation="0,1"
       position="138.05984,95.859188"
       id="guide3092" />
    <sodipodi:guide
       orientation="1,0"
       position="134.57955,95.859188"
       id="guide3094" />
    <sodipodi:guide
       orientation="0,1"
       position="584.18897,81.584468"
       id="guide3098" />
    <sodipodi:guide
       orientation="1,0"
       position="179.058,81.459288"
       id="guide3100" />
    <sodipodi:guide
       orientation="0,1"
       position="171.84706,78.724908"
       id="guide3102" />
    <sodipodi:guide
       orientation="0,1"
       position="652.14003,82.318668"
       id="guide3908" />
    <sodipodi:guide
       orientation="0,1"
       position="651.94863,79.439758"
       id="guide3910" />
    <sodipodi:guide
       orientation="1,0"
       position="653.76113,80.431948"
       id="guide3912" />
    <sodipodi:guide
       orientation="0,1"
       position="598.02284,143.23273"
       id="guide3914" />
    <sodipodi:guide
       orientation="0,1"
       position="700.94863,154.17414"
       id="guide3917" />
    <sodipodi:guide
       orientation="0,1"
       position="718.183,47.334288"
       id="guide3920" />
    <sodipodi:guide
       orientation="0,1"
       position="717.88222,50.209288"
       id="guide3922" />
    <sodipodi:guide
       orientation="1,0"
       position="717.09706,50.056948"
       id="guide3924" />
    <sodipodi:guide
       orientation="0.90735831,0.42035806"
       position="721.48146,122.53044"
       id="guide3979" />
    <sodipodi:guide
       orientation="0.90891047,0.41699132"
       position="722.07215,128.08295"
       id="guide3981" />
    <sodipodi:guide
       orientation="0,1"
       position="561.51736,180.24797"
       id="guide4003" />
    <sodipodi:guide
       orientation="1,0"
       position="507.03456,9.3967876"
       id="guide3135" />
    <sodipodi:guide
       orientation="0,1"
       position="336.10498,27.093058"
       id="guide3145" />
    <sodipodi:guide
       orientation="0,1"
       position="323.90739,34.340898"
       id="guide3147" />
  </sodipodi:namedview>
  <metadata
     id="metadata7">
    <rdf:RDF>
      <cc:Work
         rdf:about="">
        <dc:format>image/svg+xml</dc:format>
        <dc:type
           rdf:resource="http://purl.org/dc/dcmitype/StillImage" />
        <dc:title></dc:title>
      </cc:Work>
    </rdf:RDF>
  </metadata>
  <g
     inkscape:label="Layer 1"
     inkscape:groupmode="layer"
     id="layer1"
     transform="translate(-103.71544,-562.93116)">
    <path
       inkscape:connector-curvature="0"
       id="path3062"
       style="font-style:normal;font-variant:normal;font-weight:300;font-stretch:normal;font-size:144px;line-height:125%;font-family:Raleway;-inkscape-font-specification:'Raleway Light';text-align:start;letter-spacing:-3.2599988px;word-spacing:0px;writing-mode:lr-tb;text-anchor:start;fill:#000000;fill-opacity:1;stroke:none"
       d="m 175.71544,679.66697 c 0,19.15198 15.12002,38.592 36,38.592 11.23199,0 25.05601,-6.19201 29.664,-17.856 l -3.08445,-0.003 c -4.46399,9.79199 -15.63556,14.97919 -26.57955,14.97919 -18.28798,0 -31.824,-16.12802 -33.12,-34.272 l 68.4,0 0,-1.584 c -0.288,-20.44798 -14.68802,-38.592 -36.576,-38.592 -20.87998,0 -34.128,18.72002 -34.704,38.736 m 2.88,-1.44 c 0.864,-16.41598 12.09602,-34.416 31.824,-34.416 19.15198,0 32.256,14.97602 33.552,34.416 l -65.376,0"
       sodipodi:nodetypes="csccscccsccscc" />
    <path
       inkscape:connector-curvature="0"
       id="path3064"
       style="font-style:normal;font-variant:normal;font-weight:300;font-stretch:normal;font-size:144px;line-height:125%;font-family:Raleway;-inkscape-font-specification:'Raleway Light';text-align:start;letter-spacing:-3.2599988px;word-spacing:0px;writing-mode:lr-tb;text-anchor:start;fill:#000000;fill-opacity:1;stroke:none"
       d="m 262.46669,705.73097 c 0,6.33599 4.17601,11.808 11.376,11.808 5.04,0 6.45588,-0.005 6.45588,-0.005 l -0.003,-2.73438 c -0.144,0 -2.42113,0.003 -6.30913,0.003 -5.61599,0 -8.64,-4.896 -8.64,-9.072 l 0,-89.71959 -2.88,0 0,89.71959"
       sodipodi:nodetypes="csccssccc" />
    <path
       inkscape:connector-curvature="0"
       id="path3074"
       style="font-style:normal;font-variant:normal;font-weight:300;font-stretch:normal;font-size:144px;line-height:125%;font-family:Raleway;-inkscape-font-specification:'Raleway Light';text-align:start;letter-spacing:-3.2599988px;word-spacing:0px;writing-mode:lr-tb;text-anchor:start;fill:#000000;fill-opacity:1;stroke:none"
       d="m 682.82268,714.6745 c -1.45919,0 -2.35199,-0.0155 -8.97598,-0.0155 -5.04,0 -9.648,-3.02401 -10.08,-8.64 l 0,-61.056 20.82843,0 0,-2.88 -20.82843,0 0,-26.064 -2.88,0 0,26.064 c 0,1.33043 0,1.40828 0,2.88 l 0,61.056 c 0,6.91199 6.048,11.52 12.96,11.52 7.91999,0 8.82759,0.13909 8.97159,-0.005"
       sodipodi:nodetypes="cscccccccccssc" />
    <path
       inkscape:connector-curvature="0"
       id="path3076"
       style="font-style:normal;font-variant:normal;font-weight:300;font-stretch:normal;font-size:144px;line-height:125%;font-family:Raleway;-inkscape-font-specification:'Raleway Light';text-align:start;letter-spacing:-3.2599988px;word-spacing:0px;writing-mode:lr-tb;text-anchor:start;fill:#000000;fill-opacity:1;stroke:none"
       d="m 755.26769,713.93897 c -1.584,0 -2.016,-1.152 -2.304,-2.88 l 0,-41.328 c 0,-16.12798 -9.36002,-28.8 -27.36,-28.8 -9.21599,0 -18.14401,4.46401 -25.92,9.792 l 1.728,2.304 c 8.35199,-5.90399 16.992,-9.216 24.192,-9.216 14.83198,0 24.48,10.65601 24.48,25.92 l 0,8.496 c -3.888,-1.44 -12.81602,-4.176 -25.056,-4.176 -12.95999,0 -30.816,5.18402 -30.816,21.312 0,12.81599 10.65601,22.896 24.192,22.896 11.66398,0 24.048,-4.32001 31.68,-14.112 l 0,6.912 c 0,3.024 1.872,5.616 5.184,5.76 l 2.8276,2.4e-4 8.3e-4,-2.87891 z m -7.344,-11.808 c -5.904,9.21599 -18.57602,13.248 -29.52,13.248 -11.08799,0 -21.312,-7.92001 -21.312,-20.016 0,-13.96799 15.69601,-18.432 27.936,-18.432 8.35199,0 16.848,1.296 25.056,4.464 l 0,14.832 c 0,1.728 -0.72001,3.744 -2.16,5.904"
       sodipodi:nodetypes="ccssccsscssscscccccssscsc" />
    <path
       style="font-style:normal;font-variant:normal;font-weight:300;font-stretch:normal;font-size:144px;line-height:125%;font-family:Raleway;-inkscape-font-specification:'Raleway Light';text-align:start;letter-spacing:-3.2599988px;word-spacing:0px;writing-mode:lr-tb;text-anchor:start;fill:#000000;fill-opacity:1;stroke:none"
       d="m 817.71875,312.03125 c -1.66471,0.0903 -3.30337,0.54979 -4.75,1.375 -2.17359,1.23989 -3.87136,3.32292 -4.59375,5.71875 -0.49437,1.63961 -0.53216,3.38846 -0.375,5.09375 0.17486,1.89739 0.57947,3.76809 1.125,5.59375 0.40354,1.3505 0.9001,2.66573 1.4375,3.96875 -2.10417,0.01 -4.20833,0.023 -6.3125,0.0313 -0.50793,0.008 -4.50569,0.0937 -6.53125,0.6875 -10.72178,3.14311 -17.32204,8.69305 -22.40625,18.625 l 0,-19.3125 -2.875,0 0,74.75 2.875,0 0,-47.25 c 1.87199,-6.83999 5.3213,-12.84449 10.21875,-17.21875 4.89744,-4.37425 11.24301,-7.11825 18.875,-7.40625 2.35326,-0.0949 4.87121,-0.094 7.28125,-0.125 l 33.46875,72 c -11.37599,25.91997 -11.81125,26.761 -12.53125,27.625 -1.008,1.008 -2.14201,1.59375 -6.75,1.59375 l -2.5625,-0.125 0,2.875 2.5625,0.125 c 5.32799,0 8.21625,-1.14575 9.65625,-3.59375 l 1,-1.71875 44.5,-101.53125 -3.1875,0 -31.25,71.125 L 815.0625,336.5 c 1.52357,-0.0223 3.08347,0.077 4.59375,-0.125 1.63354,-0.2185 3.18295,-0.86678 4.59375,-1.71875 1.48125,-0.89451 2.8144,-2.01532 3.84375,-3.40625 1.43104,-1.93372 2.21576,-4.34524 2.28125,-6.75 0.0556,-2.04142 -0.37945,-4.08968 -1.3125,-5.90625 -0.73027,-1.42177 -1.77522,-2.69179 -3,-3.71875 -1.53952,-1.29087 -3.40774,-2.21713 -5.375,-2.625 -0.97846,-0.20286 -1.96992,-0.27291 -2.96875,-0.21875 z m 0.875,2.40625 c 1.59381,0.0164 3.16923,0.5771 4.46875,1.5 1.29953,0.9229 2.33787,2.20534 3.0625,3.625 0.89918,1.76163 1.32252,3.77916 1.15625,5.75 -0.16626,1.97084 -0.92317,3.88057 -2.21875,5.375 -1.8157,2.09438 -4.67414,3.27936 -7.4375,3.0625 l -3.75,0.0313 -1.15625,-2.71875 c -0.71924,-1.71159 -1.24509,-3.48896 -1.59375,-5.3125 -0.35896,-1.87741 -0.66305,-3.8445 -0.15625,-5.6875 0.50753,-1.84566 1.83358,-3.41113 3.46875,-4.40625 1.25392,-0.7631 2.68846,-1.23385 4.15625,-1.21875 z"
       transform="translate(0,308.2677)"
       id="path3435"
       inkscape:connector-curvature="0"
       sodipodi:nodetypes="sssssccsccccccscccccccccccccccsssssssssssscccssss" />
    <path
       sodipodi:nodetypes="csccscccsccscc"
       d="m 288.7267,679.66697 c 0,19.15198 15.12002,38.592 36,38.592 11.23199,0 25.05601,-6.19201 29.664,-17.856 l -3.08445,-0.003 c -4.46399,9.79199 -15.63556,14.97919 -26.57955,14.97919 -18.28798,0 -31.824,-16.12802 -33.12,-34.272 l 68.4,0 0,-1.584 c -0.288,-20.44798 -14.68802,-38.592 -36.576,-38.592 -20.87998,0 -34.128,18.72002 -34.704,38.736 m 2.88,-1.44 c 0.864,-16.41598 12.09602,-34.416 31.824,-34.416 19.15198,0 32.256,14.97602 33.552,34.416 l -65.376,0"
       style="font-style:normal;font-variant:normal;font-weight:300;font-stretch:normal;font-size:144px;line-height:125%;font-family:Raleway;-inkscape-font-specification:'Raleway Light';text-align:start;letter-spacing:-3.2599988px;word-spacing:0px;writing-mode:lr-tb;text-anchor:start;fill:#000000;fill-opacity:1;stroke:none"
       id="path3096"
       inkscape:connector-curvature="0" />
    <path
       inkscape:connector-curvature="0"
       id="path3106"
       style="font-style:normal;font-variant:normal;font-weight:300;font-stretch:normal;font-size:144px;line-height:125%;font-family:Raleway;-inkscape-font-specification:'Raleway Light';text-align:start;letter-spacing:-3.2599988px;word-spacing:0px;writing-mode:lr-tb;text-anchor:start;fill:#000000;fill-opacity:1;stroke:none"
       d="m 496.23793,679.66688 c 0,19.15198 15.12002,38.592 36,38.592 11.23199,0 25.05601,-6.19201 29.664,-17.856 l -3.08445,-0.003 c -4.46399,9.79199 -15.63556,14.97919 -26.57955,14.97919 -18.28798,0 -31.824,-16.12802 -33.12,-34.272 l 68.4,0 0,-1.584 c -0.288,-20.44798 -14.68802,-38.592 -36.576,-38.592 -20.87998,0 -34.128,18.72002 -34.704,38.736 m 2.88,-1.44 c 0.864,-16.41598 12.09602,-34.416 31.824,-34.416 19.15198,0 32.256,14.97602 33.552,34.416 l -65.376,0"
       sodipodi:nodetypes="csccscccsccscc" />
    <path
       style="font-style:normal;font-variant:normal;font-weight:300;font-stretch:normal;font-size:144px;line-height:125%;font-family:Raleway;-inkscape-font-specification:'Raleway Light';text-align:start;letter-spacing:-3.2599988px;word-spacing:0px;writing-mode:lr-tb;text-anchor:start;fill:#000000;fill-opacity:1;stroke:none"
       d="m 610.66196,640.91272 c -21.02397,0 -28.96875,19.16126 -28.96875,34.28125 l 0,41.625 2.875,0 0,-41.625 c 0,-15.69598 8.52577,-31.40625 26.09375,-31.40625 17.56798,0 26.09375,15.71027 26.09375,31.40625 l 0,41.625 2.875,0 0,-41.625 c 0,-15.11999 -7.94478,-34.28125 -28.96875,-34.28125 z"
       id="path3133"
       inkscape:connector-curvature="0" />
    <path
       sodipodi:nodetypes="sscsscccccsccscsccs"
       d="m 480.00483,661.91807 c -2.1411,-10.79723 -12.84475,-20.9871 -26.47689,-20.9871 -14.17998,0 -24.434,10.32201 -25.414,21.744 -1.15199,-11.51999 -13.39001,-21.744 -27.358,-21.744 -12.23998,0 -21.91337,9.35801 -24.838,20.823 -1.42922,5.60275 -1.88,7.4632 -1.88,55.065 0,0 1.4395,0 2.88,0 0,-41.8953 0.0916,-45.01547 0.875,-50.732 1.83582,-12.08685 10.39881,-22.39971 22.963,-22.276 13.41599,0 26.304,8.64935 25.554,31.642 0,6.12323 0.1876,16.67926 0.1876,24.49811 0,8.76149 -0.1876,16.86789 -0.1876,16.86789 l 2.88,0 c 0,0 0.31042,-27.79495 0,-41.338 -0.5,-21.81385 11.27824,-31.64455 24.338,-31.67 13.60667,0.20485 24.06342,10.48085 24.87722,24.74555 0.41243,7.22924 0.17678,35.99384 0.17678,48.26245 1.41983,0 1.44422,0 2.88,0 0,-47.72177 -0.45288,-49.83673 -1.45711,-54.9009 z"
       style="font-style:normal;font-variant:normal;font-weight:300;font-stretch:normal;font-size:144px;line-height:125%;font-family:Raleway;-inkscape-font-specification:'Raleway Light';text-align:start;letter-spacing:-3.2599988px;word-spacing:0px;writing-mode:lr-tb;text-anchor:start;fill:#000000;fill-opacity:1;stroke:none"
       id="path3143"
       inkscape:connector-curvature="0" />
  </g>
  <g
     inkscape:groupmode="layer"
     id="layer2"
     inkscape:label="trace"
     style="display:none"
     transform="translate(-103.71544,-254.66346)">
    <path
       d="m 639.72521,366.93527 c 0,-15.11999 -1.29603,-34.272 -22.32,-34.272 -13.10399,0 -26.64001,8.35201 -32.832,20.448 l 0,-19.296 -2.88,0 0,74.736 2.88,0 0,-47.232 c 3.74399,-13.24799 17.56801,-25.776 32.832,-25.776 17.56798,0 19.44,15.69602 19.44,31.392 l 0,41.616 2.88,0 0,-41.616"
       style="font-style:normal;font-variant:normal;font-weight:300;font-stretch:normal;font-size:144px;line-height:125%;font-family:Raleway;-inkscape-font-specification:'Raleway Light';text-align:start;letter-spacing:-3.2599988px;word-spacing:0px;writing-mode:lr-tb;text-anchor:start;fill:none;stroke:#ff0000;stroke-width:0.30000001;stroke-miterlimit:4;stroke-dasharray:none"
       id="path3108"
       inkscape:connector-curvature="0" />
  </g>
</svg>
