<?xml version="1.0" encoding="UTF-8" standalone="no"?>
<svg xmlns:dc="http://purl.org/dc/elements/1.1/" xmlns:cc="http://creativecommons.org/ns#" xmlns:rdf="http://www.w3.org/1999/02/22-rdf-syntax-ns#" xmlns:svg="http://www.w3.org/2000/svg" xmlns="http://www.w3.org/2000/svg" xmlns:sodipodi="http://sodipodi.sourceforge.net/DTD/sodipodi-0.dtd" xmlns:inkscape="http://www.inkscape.org/namespaces/inkscape" width="146.20282mm" height="33.866772mm" viewBox="0 0 146.20282 33.866772" version="1.1" id="svg74" inkscape:version="1.0 (4035a4fb49, 2020-05-01)" sodipodi:docname="Manjaro logo text.svg">
  <title id="title192">Manjaro logo text</title>
  <defs id="defs68">
    <clipPath clipPathUnits="userSpaceOnUse" id="clipPath56">
      <path d="M 0,96 H 414.434 V 0 H 0 Z" id="path54"/>
    </clipPath>
  </defs>
  <sodipodi:namedview id="base" pagecolor="#ffffff" bordercolor="#666666" borderopacity="1.0" inkscape:pageopacity="0.0" inkscape:pageshadow="2" inkscape:zoom="1.4" inkscape:cx="216.95666" inkscape:cy="-20.725719" inkscape:document-units="px" inkscape:current-layer="layer1" inkscape:document-rotation="0" showgrid="false" fit-margin-top="0" fit-margin-left="0" fit-margin-right="0" fit-margin-bottom="0" showborder="false" inkscape:window-width="1920" inkscape:window-height="1013" inkscape:window-x="-9" inkscape:window-y="-9" inkscape:window-maximized="1"/>
  <metadata id="metadata71">
    <rdf:RDF>
      <cc:Work rdf:about="">
        <dc:format>image/svg+xml</dc:format>
        <dc:type rdf:resource="http://purl.org/dc/dcmitype/StillImage"/>
        <dc:title>Manjaro logo text</dc:title>
      </cc:Work>
    </rdf:RDF>
  </metadata>
  <g transform="translate(-23.093532,-37.306198)" inkscape:label="Layer 1" inkscape:groupmode="layer" id="layer1">
    <path d="m 47.048201,71.172971 h 9.911998 V 37.306304 h -9.911998 z" style="fill:#35bf5c;fill-opacity:1;fill-rule:nonzero;stroke:none;stroke-width:0.352777" id="path42"/>
    <path d="m 35.07069,71.172971 h 9.911997 V 49.283462 H 35.07069 Z" style="fill:#35bf5c;fill-opacity:1;fill-rule:nonzero;stroke:none;stroke-width:0.352777" id="path44"/>
    <g id="g46" transform="matrix(0.35277777,0,0,-0.35277777,23.093532,37.306198)">
      <path d="m 0,0 v -96 h 28.002 v 67.903 H 62.048 V 0 Z" style="fill:#35bf5c;fill-opacity:1;fill-rule:nonzero;stroke:none" id="path48"/>
    </g>
    <g transform="matrix(0.35277777,0,0,-0.35277777,23.093532,71.172971)" id="g50">
      <g id="g52" clip-path="url(#clipPath56)">
        <g id="g58" transform="translate(167.1694,67.666)">
          <path d="m 0,0 c -2.107,1.196 -4.523,1.795 -7.251,1.795 -3.112,0 -5.876,-0.671 -8.292,-2.01 -1.707,-0.946 -3.129,-2.162 -4.299,-3.62 -1.075,1.616 -2.424,2.902 -4.065,3.835 -2.107,1.196 -4.523,1.795 -7.251,1.795 -2.825,0 -5.338,-0.671 -7.539,-2.01 -0.931,-0.567 -1.759,-1.247 -2.519,-1.999 -0.017,1.061 -0.347,1.92 -0.998,2.573 -0.671,0.67 -1.557,1.005 -2.657,1.005 -1.053,0 -1.927,-0.335 -2.62,-1.005 -0.695,-0.671 -1.041,-1.555 -1.041,-2.656 v -31.948 c 0,-1.054 0.346,-1.928 1.041,-2.621 0.693,-0.695 1.567,-1.041 2.62,-1.041 1.1,0 1.986,0.346 2.657,1.041 0.669,0.693 1.005,1.567 1.005,2.621 v 20.246 c 0,2.68 0.813,4.882 2.44,6.604 1.627,1.723 3.686,2.585 6.175,2.585 2.392,0 4.331,-0.73 5.815,-2.19 1.483,-1.46 2.226,-3.697 2.226,-6.712 v -20.533 c 0,-1.054 0.346,-1.928 1.041,-2.621 0.693,-0.695 1.567,-1.041 2.62,-1.041 1.1,0 1.986,0.346 2.656,1.041 0.67,0.693 1.006,1.567 1.006,2.621 v 20.246 c 0,2.68 0.8,4.882 2.405,6.604 1.602,1.723 3.649,2.585 6.138,2.585 2.393,0 4.331,-0.73 5.815,-2.19 1.483,-1.46 2.226,-3.697 2.226,-6.712 v -20.533 c 0,-1.054 0.346,-1.928 1.041,-2.621 0.693,-0.695 1.567,-1.041 2.62,-1.041 1.101,0 1.985,0.346 2.656,1.041 0.67,0.693 1.006,1.567 1.006,2.621 v 20.533 c 0,3.302 -0.587,6.113 -1.76,8.436 C 3.744,-2.956 2.105,-1.196 0,0" style="fill:#444444;fill-opacity:1;fill-rule:nonzero;stroke:none" id="path60"/>
        </g>
        <g id="g62" transform="translate(209.0371,37.7646)">
          <path d="m 0,0 c -1.914,-1.174 -4.091,-1.76 -6.532,-1.76 -2.394,0 -4.559,0.586 -6.498,1.76 -1.938,1.172 -3.47,2.774 -4.595,4.81 -1.125,2.034 -1.687,4.319 -1.687,6.856 0,2.585 0.562,4.894 1.687,6.928 1.125,2.034 2.657,3.636 4.595,4.81 1.939,1.172 4.104,1.759 6.498,1.759 2.441,0 4.618,-0.587 6.532,-1.759 C 1.914,22.23 3.422,20.628 4.523,18.594 5.625,16.56 6.176,14.251 6.176,11.666 6.176,9.129 5.625,6.844 4.523,4.81 3.422,2.774 1.914,1.172 0,0 m 3.52,29.004 c -2.969,1.747 -6.319,2.621 -10.052,2.621 -3.734,0 -7.096,-0.874 -10.087,-2.621 -2.992,-1.747 -5.361,-4.128 -7.108,-7.144 -1.748,-3.014 -2.62,-6.414 -2.62,-10.194 0,-3.781 0.801,-7.168 2.405,-10.159 1.603,-2.991 3.793,-5.361 6.569,-7.108 2.775,-1.747 5.911,-2.62 9.405,-2.62 3.493,0 6.628,0.873 9.405,2.62 1.706,1.075 3.188,2.385 4.452,3.929 v -2.672 c 0,-1.053 0.345,-1.927 1.041,-2.621 0.693,-0.694 1.566,-1.041 2.619,-1.041 1.053,0 1.926,0.347 2.621,1.041 0.693,0.694 1.041,1.568 1.041,2.621 v 16.01 c 0,3.78 -0.873,7.18 -2.621,10.194 -1.748,3.016 -4.104,5.397 -7.07,7.144" style="fill:#444444;fill-opacity:1;fill-rule:nonzero;stroke:none" id="path64"/>
        </g>
        <g id="g66" transform="translate(266.6865,33.4209)">
          <path d="m 0,0 v 17.661 c 0,3.973 -0.754,7.323 -2.262,10.051 -1.507,2.728 -3.565,4.798 -6.174,6.21 -2.609,1.411 -5.563,2.118 -8.866,2.118 -3.159,0 -6.007,-0.694 -8.544,-2.082 -1.386,-0.759 -2.596,-1.678 -3.661,-2.729 v 0.791 c 0,1.1 -0.335,1.985 -1.005,2.656 -0.671,0.67 -1.555,1.006 -2.656,1.006 -1.054,0 -1.928,-0.336 -2.621,-1.006 -0.694,-0.671 -1.041,-1.556 -1.041,-2.656 V 0 c 0,-1.054 0.347,-1.928 1.041,-2.621 0.693,-0.694 1.567,-1.041 2.621,-1.041 1.101,0 1.985,0.347 2.656,1.041 0.67,0.693 1.005,1.567 1.005,2.621 v 20.246 c 0,1.77 0.478,3.338 1.436,4.702 0.957,1.364 2.25,2.452 3.877,3.267 1.627,0.813 3.446,1.221 5.457,1.221 2.2,0 4.151,-0.42 5.85,-1.257 1.699,-0.838 3.051,-2.118 4.057,-3.841 1.005,-1.723 1.508,-3.948 1.508,-6.677 L -7.322,0 c 0,-1.054 0.346,-1.928 1.041,-2.621 0.692,-0.694 1.566,-1.041 2.62,-1.041 1.052,0 1.926,0.347 2.62,1.041 C -0.348,-1.928 0,-1.054 0,0" style="fill:#444444;fill-opacity:1;fill-rule:nonzero;stroke:none" id="path68"/>
        </g>
        <g id="g70" transform="translate(282.4092,69.1025)">
          <path d="m 0,0 c -1.053,0 -1.927,-0.336 -2.62,-1.006 -0.694,-0.671 -1.041,-1.556 -1.041,-2.656 v -35.466 c 0,-1.866 -0.42,-3.518 -1.257,-4.954 -0.838,-1.436 -1.974,-2.572 -3.41,-3.41 -1.436,-0.837 -3.11,-1.256 -5.026,-1.256 -1.051,0 -1.913,-0.334 -2.584,-1.005 -0.669,-0.67 -1.005,-1.555 -1.005,-2.656 0,-1.053 0.336,-1.927 1.005,-2.621 0.671,-0.694 1.533,-1.041 2.584,-1.041 3.351,0 6.293,0.73 8.832,2.189 2.536,1.461 4.534,3.459 5.994,5.995 1.46,2.537 2.19,5.456 2.19,8.759 v 35.466 c 0,1.1 -0.336,1.985 -1.006,2.656 C 1.985,-0.336 1.101,0 0,0" style="fill:#444444;fill-opacity:1;fill-rule:nonzero;stroke:none" id="path72"/>
        </g>
        <g id="g74" transform="translate(282.4092,82.9688)">
          <path d="m 0,0 c -1.292,0 -2.405,-0.467 -3.338,-1.4 -0.933,-0.934 -1.4,-2.046 -1.4,-3.338 0,-1.293 0.467,-2.406 1.4,-3.339 0.933,-0.934 2.046,-1.401 3.338,-1.401 1.292,0 2.405,0.467 3.339,1.401 0.932,0.933 1.399,2.046 1.399,3.339 0,1.292 -0.467,2.404 -1.399,3.338 C 2.405,-0.467 1.292,0 0,0" style="fill:#444444;fill-opacity:1;fill-rule:nonzero;stroke:none" id="path76"/>
        </g>
        <g id="g78" transform="translate(319.5967,37.7646)">
          <path d="m 0,0 c -1.914,-1.174 -4.092,-1.76 -6.533,-1.76 -2.394,0 -4.559,0.586 -6.497,1.76 -1.939,1.172 -3.471,2.774 -4.595,4.81 -1.125,2.034 -1.687,4.319 -1.687,6.856 0,2.585 0.562,4.894 1.687,6.928 1.124,2.034 2.656,3.636 4.595,4.81 1.938,1.172 4.103,1.759 6.497,1.759 2.441,0 4.619,-0.587 6.533,-1.759 C 1.914,22.23 3.422,20.628 4.523,18.594 5.624,16.56 6.175,14.251 6.175,11.666 6.175,9.129 5.624,6.844 4.523,4.81 3.422,2.774 1.914,1.172 0,0 m 3.519,29.004 c -2.969,1.747 -6.319,2.621 -10.052,2.621 -3.733,0 -7.096,-0.874 -10.087,-2.621 -2.991,-1.747 -5.36,-4.128 -7.108,-7.144 -1.747,-3.014 -2.62,-6.414 -2.62,-10.194 0,-3.781 0.801,-7.168 2.406,-10.159 1.602,-2.991 3.793,-5.361 6.569,-7.108 2.774,-1.747 5.91,-2.62 9.404,-2.62 3.493,0 6.629,0.873 9.406,2.62 1.705,1.075 3.188,2.385 4.451,3.929 v -2.672 c 0,-1.053 0.346,-1.927 1.041,-2.621 0.693,-0.694 1.566,-1.041 2.62,-1.041 1.053,0 1.926,0.347 2.62,1.041 0.693,0.694 1.041,1.568 1.041,2.621 v 16.01 c 0,3.78 -0.873,7.18 -2.62,10.194 -1.748,3.016 -4.105,5.397 -7.071,7.144" style="fill:#444444;fill-opacity:1;fill-rule:nonzero;stroke:none" id="path80"/>
        </g>
        <g id="g82" transform="translate(365.7949,68.1328)">
          <path d="m 0,0 c -1.412,0.934 -3.554,1.4 -6.425,1.4 -2.872,0 -5.505,-0.671 -7.897,-2.01 -1.619,-0.907 -2.994,-2.045 -4.164,-3.378 v 1.368 c 0,1.195 -0.3,2.093 -0.898,2.692 -0.598,0.598 -1.496,0.898 -2.692,0.898 -1.149,0 -2.034,-0.313 -2.656,-0.934 -0.622,-0.623 -0.934,-1.508 -0.934,-2.656 v -32.092 c 0,-1.197 0.312,-2.095 0.934,-2.692 0.622,-0.599 1.507,-0.898 2.656,-0.898 1.196,0 2.094,0.311 2.692,0.934 0.598,0.621 0.898,1.508 0.898,2.656 v 20.964 c 0,2.2 0.706,4.02 2.118,5.456 1.411,1.436 3.338,2.416 5.779,2.943 2.441,0.527 5.193,0.478 8.256,-0.143 0.622,-0.144 1.196,-0.168 1.724,-0.071 0.525,0.094 0.992,0.322 1.399,0.681 0.406,0.36 0.683,0.873 0.826,1.544 C 1.95,-2.046 1.412,-0.934 0,0" style="fill:#444444;fill-opacity:1;fill-rule:nonzero;stroke:none" id="path84"/>
        </g>
        <g id="g86" transform="translate(405.7832,42.4668)">
          <path d="m 0,0 c -1.077,-2.011 -2.573,-3.59 -4.487,-4.738 -1.915,-1.149 -4.117,-1.724 -6.606,-1.724 -2.489,0 -4.69,0.575 -6.604,1.724 -1.915,1.148 -3.423,2.727 -4.524,4.738 -1.101,2.01 -1.65,4.331 -1.65,6.964 0,2.632 0.549,4.965 1.65,7 1.101,2.034 2.609,3.626 4.524,4.774 1.914,1.149 4.115,1.723 6.604,1.723 2.489,0 4.691,-0.574 6.606,-1.723 1.914,-1.148 3.41,-2.74 4.487,-4.774 1.076,-2.035 1.615,-4.368 1.615,-7 C 1.615,4.331 1.076,2.01 0,0 m 6.103,17.338 c -1.701,2.991 -4.034,5.337 -7,7.036 -2.969,1.698 -6.367,2.549 -10.196,2.549 -3.876,0 -7.299,-0.851 -10.265,-2.549 -2.969,-1.699 -5.302,-4.045 -7,-7.036 -1.7,-2.991 -2.549,-6.45 -2.549,-10.374 0,-3.877 0.849,-7.312 2.549,-10.303 1.698,-2.991 4.031,-5.337 7,-7.035 2.966,-1.7 6.389,-2.549 10.265,-2.549 3.877,0 7.299,0.849 10.267,2.549 2.968,1.698 5.288,4.044 6.964,7.035 1.674,2.991 2.512,6.426 2.512,10.303 0,3.924 -0.849,7.383 -2.547,10.374" style="fill:#444444;fill-opacity:1;fill-rule:nonzero;stroke:none" id="path88"/>
        </g>
      </g>
    </g>
  </g>
</svg>